<?xml version="1.0" encoding="UTF-8" standalone="no"?>
<!DOCTYPE svg PUBLIC "-//W3C//DTD SVG 1.1//EN" "http://www.w3.org/Graphics/SVG/1.1/DTD/svg11.dtd">
<svg xmlns="http://www.w3.org/2000/svg" version="1.1" viewBox="0.00 0.00 1406.00 648.00" width="1406.00" height="648.00">
<g stroke-width="2.00" fill="none" stroke-linecap="butt">
<path stroke="#121212" vector-effect="non-scaling-stroke" d="
  M 519.79 83.16
  Q 522.22 84.35 524.79 85.14
  C 530.60 86.91 534.62 89.28 538.11 94.41
  A 2.02 2.01 68.6 0 0 540.06 95.27
  Q 547.57 94.18 553.64 98.66
  A 1.89 1.88 -24.8 0 0 554.60 99.01
  Q 560.93 99.42 565.99 102.93
  C 571.06 106.45 576.06 108.36 580.60 112.81
  Q 582.15 114.33 584.20 115.28
  Q 589.49 117.75 593.47 122.02
  C 597.09 125.90 602.63 128.35 606.19 131.33
  Q 612.78 136.84 620.39 145.45
  C 623.33 148.77 627.71 151.94 630.57 155.92
  Q 633.56 160.07 643.27 174.50
  C 647.18 180.30 650.82 183.80 652.34 191.14
  Q 652.72 193.01 656.39 197.08
  C 657.63 198.45 658.48 201.01 658.82 202.83
  C 659.87 208.51 662.51 215.03 658.88 220.18
  A 1.37 1.37 0.0 0 0 659.74 222.31
  C 662.87 222.92 664.53 224.83 665.36 228.01
  Q 667.01 234.30 668.67 240.60
  C 669.94 245.43 669.98 250.52 670.67 255.57
  Q 670.74 256.12 671.29 256.08
  L 672.54 255.99"
/>
<path stroke="#121212" vector-effect="non-scaling-stroke" d="
  M 667.27 316.42
  Q 664.44 321.60 668.42 326.91
  C 670.70 329.96 671.51 332.90 673.50 335.92
  Q 675.00 338.19 675.67 340.42
  Q 677.14 345.32 679.22 350.02
  C 679.94 351.62 681.65 353.17 681.71 355.59
  Q 681.74 356.44 680.77 359.27
  C 679.96 361.64 679.95 364.15 677.88 366.15
  Q 677.52 366.50 677.55 367.00
  Q 678.09 376.76 677.86 379.76
  Q 677.37 386.03 673.93 390.89
  Q 670.20 396.15 670.05 396.40
  Q 668.01 399.84 665.94 403.27
  Q 663.97 406.54 661.38 408.73
  Q 656.88 412.53 651.90 415.68
  Q 650.14 416.79 648.29 418.51
  Q 646.59 420.09 644.70 421.44
  C 642.21 423.22 639.60 423.18 636.64 423.65
  Q 636.09 423.74 635.73 424.16
  Q 631.17 429.46 625.62 433.75
  Q 625.21 434.06 625.06 434.56
  L 623.72 438.86
  A 1.43 1.43 0.0 0 1 621.44 439.53
  C 617.98 436.60 620.63 429.36 622.75 426.63
  C 624.40 424.50 627.16 423.63 629.61 422.57
  C 633.03 421.09 635.20 418.45 640.05 418.94
  A 1.11 1.09 -61.5 0 0 640.87 418.69
  C 642.78 417.05 645.23 416.35 646.92 414.73
  Q 654.18 407.75 661.68 401.03
  C 663.22 399.66 662.66 395.98 663.55 394.01
  Q 664.95 390.87 667.18 388.30
  Q 669.80 385.27 670.56 383.68
  Q 674.05 376.34 673.44 368.03
  Q 673.27 365.74 674.99 362.16
  Q 675.20 361.72 675.16 361.23
  Q 674.57 353.99 673.15 350.84
  Q 672.15 348.63 671.66 347.07
  Q 670.92 344.76 670.16 343.37
  Q 668.54 340.43 667.75 337.21
  Q 666.78 333.23 665.89 331.62
  Q 662.29 325.08 656.22 320.73
  Q 653.64 318.88 651.62 316.79
  C 649.36 314.45 640.63 307.10 637.35 308.30
  Q 632.14 310.20 626.70 309.84
  C 621.40 309.48 618.74 314.08 615.52 317.21
  C 610.71 321.88 605.12 324.08 603.98 331.90
  Q 603.74 333.56 602.19 334.20
  Q 598.76 335.63 597.55 332.66
  Q 597.37 332.20 597.48 331.72
  L 598.00 329.51
  Q 598.10 329.06 598.37 328.69
  Q 600.11 326.35 600.88 323.57
  C 601.97 319.66 603.69 317.63 606.55 315.20
  C 608.38 313.64 612.35 312.31 613.58 309.03
  Q 615.65 303.54 617.27 300.70
  A 0.98 0.97 10.8 0 1 618.01 300.20
  C 620.11 299.96 620.46 298.62 619.79 296.77
  Q 616.90 288.80 612.34 281.72
  Q 608.15 275.21 607.29 273.49
  Q 605.05 269.02 603.52 264.38
  A 2.20 2.19 -2.2 0 0 601.96 262.94
  C 595.31 261.34 595.69 251.94 590.92 247.80
  Q 585.06 242.71 581.00 235.99
  A 1.79 1.72 -1.2 0 0 580.28 235.33
  Q 575.28 232.86 573.13 230.10
  Q 570.53 226.79 567.60 225.50
  Q 565.04 224.37 564.04 223.61
  Q 560.91 221.22 557.57 219.14
  C 554.10 216.97 551.48 213.93 547.93 211.62
  C 546.16 210.46 545.33 208.86 543.81 207.43
  Q 543.20 206.85 542.58 206.75
  Q 541.59 206.60 541.18 207.34
  A 1.10 1.10 0.0 0 1 539.60 207.73
  L 533.89 203.90
  Q 533.45 203.61 532.93 203.72
  Q 530.76 204.17 529.42 203.38
  Q 522.86 199.54 515.49 197.52
  Q 515.00 197.39 514.79 196.93
  Q 512.14 191.35 506.21 190.68
  Q 504.36 190.47 503.35 190.17
  Q 501.94 189.77 500.53 189.39
  Q 499.68 189.17 496.37 188.01
  Q 494.13 187.22 491.75 187.00
  C 489.32 186.79 482.76 188.84 481.59 185.24
  A 0.70 0.70 0.0 0 0 480.74 184.79
  Q 477.24 185.80 474.23 185.68
  Q 472.82 185.63 472.01 184.76
  Q 471.04 183.72 470.54 182.29
  Q 470.39 181.86 470.03 181.58
  Q 465.33 177.93 463.33 172.38
  C 462.19 169.23 460.49 168.30 457.41 167.85
  A 1.10 1.06 77.4 0 1 456.65 167.35
  Q 456.17 166.60 455.24 166.84
  C 451.01 167.93 447.63 167.62 443.61 170.01
  Q 443.21 170.26 443.11 170.72
  Q 441.57 177.85 434.48 178.63
  Q 426.69 179.49 422.88 180.37
  Q 418.11 181.48 411.02 178.74
  C 407.99 177.57 401.80 181.26 399.88 176.01
  Q 397.15 168.50 389.00 164.75"
/>
<path stroke="#121212" vector-effect="non-scaling-stroke" d="
  M 216.90 466.12
  Q 217.86 468.82 216.53 472.42
  A 1.19 1.19 0.0 0 1 214.78 473.01
  Q 212.89 471.82 211.74 469.93
  Q 210.99 468.71 209.85 466.13
  Q 209.16 464.58 208.75 462.90
  Q 208.45 461.67 207.62 460.18
  Q 206.87 458.85 206.59 457.33
  C 206.03 454.42 205.34 451.70 208.49 450.29
  A 2.24 2.24 0.0 0 0 209.27 446.77
  Q 207.57 444.81 205.33 443.93
  A 1.40 1.40 0.0 0 1 204.63 443.35
  Q 203.78 441.96 203.37 440.37
  C 202.05 435.16 199.96 426.69 201.84 421.49
  Q 202.83 418.77 203.54 415.96
  C 204.74 411.13 206.27 406.69 206.98 402.28
  Q 207.73 397.50 209.95 393.75
  Q 210.77 392.36 211.08 391.04
  Q 211.47 389.41 211.93 387.77
  Q 212.05 387.34 211.60 387.36
  Q 211.44 387.37 211.29 387.39
  Q 210.58 387.50 210.95 386.88
  Q 211.97 385.16 211.93 383.25"
/>
<path stroke="#121212" vector-effect="non-scaling-stroke" d="
  M 209.43 329.74
  Q 210.70 326.52 213.26 327.51
  A 0.86 0.86 0.0 0 0 214.20 326.13
  Q 207.41 318.62 203.89 309.11
  C 202.33 304.87 203.15 300.02 200.98 295.37
  C 198.81 290.73 195.34 290.47 194.55 284.21
  Q 193.29 274.26 191.31 264.40
  C 190.80 261.87 189.14 259.07 189.76 255.56
  Q 189.85 255.03 190.23 254.65
  Q 193.32 251.46 190.35 248.17
  A 2.05 2.03 -72.1 0 1 189.84 247.16
  Q 187.73 235.97 187.44 232.50
  Q 186.95 226.45 188.87 218.45
  Q 189.08 217.57 189.61 216.70
  C 191.58 213.44 191.80 210.79 192.48 207.12
  C 193.24 203.06 195.21 199.16 196.42 195.14
  C 196.97 193.33 198.74 192.19 199.18 189.82
  C 199.66 187.27 199.84 185.25 201.24 182.91
  C 203.59 179.02 205.07 174.87 207.56 171.25
  Q 213.25 163.00 218.37 154.40
  Q 220.66 150.56 223.56 147.30
  Q 226.49 144.00 229.35 140.64
  C 231.93 137.63 234.82 135.48 237.84 133.00
  C 240.59 130.73 245.04 128.71 247.67 125.43
  C 251.79 120.32 255.02 117.76 261.35 114.35
  Q 266.13 111.78 270.60 108.71
  Q 271.02 108.41 271.23 107.95
  C 272.47 105.14 274.33 105.01 276.56 103.85
  C 278.93 102.61 281.72 102.26 284.24 101.25
  C 287.95 99.77 290.85 95.99 294.56 93.86
  C 297.83 91.98 301.37 92.81 304.95 90.41
  Q 309.78 87.18 314.81 84.17
  Q 315.23 83.92 315.72 83.95
  Q 318.79 84.17 321.40 82.95
  Q 323.60 81.92 325.16 81.70
  Q 330.83 80.91 336.16 78.89
  Q 341.74 76.77 344.55 76.08
  Q 359.11 72.52 364.23 71.18
  Q 367.12 70.42 371.50 68.61"
/>
</g>
<path fill="#232323" d="
  M 519.79 83.16
  Q 522.22 84.35 524.79 85.14
  C 530.60 86.91 534.62 89.28 538.11 94.41
  A 2.02 2.01 68.6 0 0 540.06 95.27
  Q 547.57 94.18 553.64 98.66
  A 1.89 1.88 -24.8 0 0 554.60 99.01
  Q 560.93 99.42 565.99 102.93
  C 571.06 106.45 576.06 108.36 580.60 112.81
  Q 582.15 114.33 584.20 115.28
  Q 589.49 117.75 593.47 122.02
  C 597.09 125.90 602.63 128.35 606.19 131.33
  Q 612.78 136.84 620.39 145.45
  C 623.33 148.77 627.71 151.94 630.57 155.92
  Q 633.56 160.07 643.27 174.50
  C 647.18 180.30 650.82 183.80 652.34 191.14
  Q 652.72 193.01 656.39 197.08
  C 657.63 198.45 658.48 201.01 658.82 202.83
  C 659.87 208.51 662.51 215.03 658.88 220.18
  A 1.37 1.37 0.0 0 0 659.74 222.31
  C 662.87 222.92 664.53 224.83 665.36 228.01
  Q 667.01 234.30 668.67 240.60
  C 669.94 245.43 669.98 250.52 670.67 255.57
  Q 670.74 256.12 671.29 256.08
  L 672.54 255.99
  C 671.79 265.31 671.46 271.76 673.51 279.22
  A 1.78 1.74 46.3 0 1 673.50 280.21
  C 671.34 287.50 671.20 292.90 669.71 298.84
  Q 668.22 304.80 668.03 306.40
  Q 667.40 311.56 667.27 316.42
  Q 664.44 321.60 668.42 326.91
  C 670.70 329.96 671.51 332.90 673.50 335.92
  Q 675.00 338.19 675.67 340.42
  Q 677.14 345.32 679.22 350.02
  C 679.94 351.62 681.65 353.17 681.71 355.59
  Q 681.74 356.44 680.77 359.27
  C 679.96 361.64 679.95 364.15 677.88 366.15
  Q 677.52 366.50 677.55 367.00
  Q 678.09 376.76 677.86 379.76
  Q 677.37 386.03 673.93 390.89
  Q 670.20 396.15 670.05 396.40
  Q 668.01 399.84 665.94 403.27
  Q 663.97 406.54 661.38 408.73
  Q 656.88 412.53 651.90 415.68
  Q 650.14 416.79 648.29 418.51
  Q 646.59 420.09 644.70 421.44
  C 642.21 423.22 639.60 423.18 636.64 423.65
  Q 636.09 423.74 635.73 424.16
  Q 631.17 429.46 625.62 433.75
  Q 625.21 434.06 625.06 434.56
  L 623.72 438.86
  A 1.43 1.43 0.0 0 1 621.44 439.53
  C 617.98 436.60 620.63 429.36 622.75 426.63
  C 624.40 424.50 627.16 423.63 629.61 422.57
  C 633.03 421.09 635.20 418.45 640.05 418.94
  A 1.11 1.09 -61.5 0 0 640.87 418.69
  C 642.78 417.05 645.23 416.35 646.92 414.73
  Q 654.18 407.75 661.68 401.03
  C 663.22 399.66 662.66 395.98 663.55 394.01
  Q 664.95 390.87 667.18 388.30
  Q 669.80 385.27 670.56 383.68
  Q 674.05 376.34 673.44 368.03
  Q 673.27 365.74 674.99 362.16
  Q 675.20 361.72 675.16 361.23
  Q 674.57 353.99 673.15 350.84
  Q 672.15 348.63 671.66 347.07
  Q 670.92 344.76 670.16 343.37
  Q 668.54 340.43 667.75 337.21
  Q 666.78 333.23 665.89 331.62
  Q 662.29 325.08 656.22 320.73
  Q 653.64 318.88 651.62 316.79
  C 649.36 314.45 640.63 307.10 637.35 308.30
  Q 632.14 310.20 626.70 309.84
  C 621.40 309.48 618.74 314.08 615.52 317.21
  C 610.71 321.88 605.12 324.08 603.98 331.90
  Q 603.74 333.56 602.19 334.20
  Q 598.76 335.63 597.55 332.66
  Q 597.37 332.20 597.48 331.72
  L 598.00 329.51
  Q 598.10 329.06 598.37 328.69
  Q 600.11 326.35 600.88 323.57
  C 601.97 319.66 603.69 317.63 606.55 315.20
  C 608.38 313.64 612.35 312.31 613.58 309.03
  Q 615.65 303.54 617.27 300.70
  A 0.98 0.97 10.8 0 1 618.01 300.20
  C 620.11 299.96 620.46 298.62 619.79 296.77
  Q 616.90 288.80 612.34 281.72
  Q 608.15 275.21 607.29 273.49
  Q 605.05 269.02 603.52 264.38
  A 2.20 2.19 -2.2 0 0 601.96 262.94
  C 595.31 261.34 595.69 251.94 590.92 247.80
  Q 585.06 242.71 581.00 235.99
  A 1.79 1.72 -1.2 0 0 580.28 235.33
  Q 575.28 232.86 573.13 230.10
  Q 570.53 226.79 567.60 225.50
  Q 565.04 224.37 564.04 223.61
  Q 560.91 221.22 557.57 219.14
  C 554.10 216.97 551.48 213.93 547.93 211.62
  C 546.16 210.46 545.33 208.86 543.81 207.43
  Q 543.20 206.85 542.58 206.75
  Q 541.59 206.60 541.18 207.34
  A 1.10 1.10 0.0 0 1 539.60 207.73
  L 533.89 203.90
  Q 533.45 203.61 532.93 203.72
  Q 530.76 204.17 529.42 203.38
  Q 522.86 199.54 515.49 197.52
  Q 515.00 197.39 514.79 196.93
  Q 512.14 191.35 506.21 190.68
  Q 504.36 190.47 503.35 190.17
  Q 501.94 189.77 500.53 189.39
  Q 499.68 189.17 496.37 188.01
  Q 494.13 187.22 491.75 187.00
  C 489.32 186.79 482.76 188.84 481.59 185.24
  A 0.70 0.70 0.0 0 0 480.74 184.79
  Q 477.24 185.80 474.23 185.68
  Q 472.82 185.63 472.01 184.76
  Q 471.04 183.72 470.54 182.29
  Q 470.39 181.86 470.03 181.58
  Q 465.33 177.93 463.33 172.38
  C 462.19 169.23 460.49 168.30 457.41 167.85
  A 1.10 1.06 77.4 0 1 456.65 167.35
  Q 456.17 166.60 455.24 166.84
  C 451.01 167.93 447.63 167.62 443.61 170.01
  Q 443.21 170.26 443.11 170.72
  Q 441.57 177.85 434.48 178.63
  Q 426.69 179.49 422.88 180.37
  Q 418.11 181.48 411.02 178.74
  C 407.99 177.57 401.80 181.26 399.88 176.01
  Q 397.15 168.50 389.00 164.75
  Q 386.21 163.20 383.13 163.93
  Q 382.64 164.05 382.42 164.51
  Q 379.75 170.12 377.03 175.68
  C 374.92 179.99 373.98 182.74 369.67 183.56
  Q 351.16 187.09 331.24 186.02
  Q 328.41 185.87 327.20 183.29
  Q 324.51 177.57 323.15 171.39
  C 322.70 169.35 321.40 168.14 319.18 168.50
  C 313.76 169.39 308.15 180.34 306.05 185.55
  C 305.24 187.58 303.92 189.62 302.16 190.47
  Q 291.85 195.48 278.59 198.95
  C 273.45 200.29 268.63 202.64 263.52 204.31
  C 253.20 207.67 245.77 211.36 237.19 216.73
  C 232.32 219.78 228.13 223.71 223.72 227.57
  C 221.49 229.51 219.22 232.39 219.03 235.01
  C 218.52 242.28 217.23 249.43 217.70 256.84
  Q 218.22 265.11 216.75 273.29
  C 215.94 277.80 217.83 282.49 218.03 286.95
  Q 218.41 295.60 218.98 304.25
  C 219.31 309.15 221.03 313.97 221.67 319.09
  Q 222.03 321.94 223.07 325.27
  Q 225.08 331.70 224.61 338.49
  Q 224.47 340.55 225.16 342.40
  Q 228.16 350.41 228.61 358.96
  C 228.88 363.92 226.98 369.14 226.74 374.47
  C 226.48 380.05 223.58 384.94 222.87 389.78
  Q 222.19 394.39 217.21 406.11
  Q 214.35 412.84 213.96 420.06
  C 213.76 423.59 212.33 427.70 212.56 430.75
  Q 213.11 437.74 212.96 444.75
  Q 212.86 449.80 214.22 452.28
  C 215.69 454.94 216.38 455.71 215.24 458.88
  C 214.32 461.43 213.36 465.06 216.90 466.12
  Q 217.86 468.82 216.53 472.42
  A 1.19 1.19 0.0 0 1 214.78 473.01
  Q 212.89 471.82 211.74 469.93
  Q 210.99 468.71 209.85 466.13
  Q 209.16 464.58 208.75 462.90
  Q 208.45 461.67 207.62 460.18
  Q 206.87 458.85 206.59 457.33
  C 206.03 454.42 205.34 451.70 208.49 450.29
  A 2.24 2.24 0.0 0 0 209.27 446.77
  Q 207.57 444.81 205.33 443.93
  A 1.40 1.40 0.0 0 1 204.63 443.35
  Q 203.78 441.96 203.37 440.37
  C 202.05 435.16 199.96 426.69 201.84 421.49
  Q 202.83 418.77 203.54 415.96
  C 204.74 411.13 206.27 406.69 206.98 402.28
  Q 207.73 397.50 209.95 393.75
  Q 210.77 392.36 211.08 391.04
  Q 211.47 389.41 211.93 387.77
  Q 212.05 387.34 211.60 387.36
  Q 211.44 387.37 211.29 387.39
  Q 210.58 387.50 210.95 386.88
  Q 211.97 385.16 211.93 383.25
  Q 212.45 375.83 213.16 368.51
  Q 213.39 366.20 215.67 362.08
  C 217.02 359.64 214.84 357.16 213.93 354.95
  Q 213.32 353.44 213.26 351.64
  Q 213.10 345.84 213.01 340.06
  C 212.95 336.03 211.21 333.09 209.43 329.74
  Q 210.70 326.52 213.26 327.51
  A 0.86 0.86 0.0 0 0 214.20 326.13
  Q 207.41 318.62 203.89 309.11
  C 202.33 304.87 203.15 300.02 200.98 295.37
  C 198.81 290.73 195.34 290.47 194.55 284.21
  Q 193.29 274.26 191.31 264.40
  C 190.80 261.87 189.14 259.07 189.76 255.56
  Q 189.85 255.03 190.23 254.65
  Q 193.32 251.46 190.35 248.17
  A 2.05 2.03 -72.1 0 1 189.84 247.16
  Q 187.73 235.97 187.44 232.50
  Q 186.95 226.45 188.87 218.45
  Q 189.08 217.57 189.61 216.70
  C 191.58 213.44 191.80 210.79 192.48 207.12
  C 193.24 203.06 195.21 199.16 196.42 195.14
  C 196.97 193.33 198.74 192.19 199.18 189.82
  C 199.66 187.27 199.84 185.25 201.24 182.91
  C 203.59 179.02 205.07 174.87 207.56 171.25
  Q 213.25 163.00 218.37 154.40
  Q 220.66 150.56 223.56 147.30
  Q 226.49 144.00 229.35 140.64
  C 231.93 137.63 234.82 135.48 237.84 133.00
  C 240.59 130.73 245.04 128.71 247.67 125.43
  C 251.79 120.32 255.02 117.76 261.35 114.35
  Q 266.13 111.78 270.60 108.71
  Q 271.02 108.41 271.23 107.95
  C 272.47 105.14 274.33 105.01 276.56 103.85
  C 278.93 102.61 281.72 102.26 284.24 101.25
  C 287.95 99.77 290.85 95.99 294.56 93.86
  C 297.83 91.98 301.37 92.81 304.95 90.41
  Q 309.78 87.18 314.81 84.17
  Q 315.23 83.92 315.72 83.95
  Q 318.79 84.17 321.40 82.95
  Q 323.60 81.92 325.16 81.70
  Q 330.83 80.91 336.16 78.89
  Q 341.74 76.77 344.55 76.08
  Q 359.11 72.52 364.23 71.18
  Q 367.12 70.42 371.50 68.61
  Q 381.97 67.84 392.61 68.20
  C 394.72 68.27 395.60 67.81 397.12 66.53
  A 1.44 1.41 22.4 0 1 397.96 66.19
  C 406.00 65.66 417.47 64.38 425.70 67.96
  Q 427.98 68.95 429.98 69.02
  Q 444.64 69.55 459.27 69.99
  Q 461.52 70.06 463.78 71.08
  Q 467.34 72.69 468.98 72.78
  Q 477.92 73.27 486.83 73.77
  C 491.90 74.05 496.42 75.48 501.10 77.05
  Q 503.80 77.95 510.30 79.64
  Q 515.27 80.92 519.79 83.16
  Z"
/>
<path fill="#000000" d="
  M 371.50 68.61
  Q 367.12 70.42 364.23 71.18
  Q 359.11 72.52 344.55 76.08
  Q 341.74 76.77 336.16 78.89
  Q 330.83 80.91 325.16 81.70
  Q 323.60 81.92 321.40 82.95
  Q 318.79 84.17 315.72 83.95
  Q 315.23 83.92 314.81 84.17
  Q 309.78 87.18 304.95 90.41
  C 301.37 92.81 297.83 91.98 294.56 93.86
  C 290.85 95.99 287.95 99.77 284.24 101.25
  C 281.72 102.26 278.93 102.61 276.56 103.85
  C 274.33 105.01 272.47 105.14 271.23 107.95
  Q 271.02 108.41 270.60 108.71
  Q 266.13 111.78 261.35 114.35
  C 255.02 117.76 251.79 120.32 247.67 125.43
  C 245.04 128.71 240.59 130.73 237.84 133.00
  C 234.82 135.48 231.93 137.63 229.35 140.64
  Q 226.49 144.00 223.56 147.30
  Q 220.66 150.56 218.37 154.40
  Q 213.25 163.00 207.56 171.25
  C 205.07 174.87 203.59 179.02 201.24 182.91
  C 199.84 185.25 199.66 187.27 199.18 189.82
  C 198.74 192.19 196.97 193.33 196.42 195.14
  C 195.21 199.16 193.24 203.06 192.48 207.12
  C 191.80 210.79 191.58 213.44 189.61 216.70
  Q 189.08 217.57 188.87 218.45
  Q 186.95 226.45 187.44 232.50
  Q 187.73 235.97 189.84 247.16
  A 2.05 2.03 -72.1 0 0 190.35 248.17
  Q 193.32 251.46 190.23 254.65
  Q 189.85 255.03 189.76 255.56
  C 189.14 259.07 190.80 261.87 191.31 264.40
  Q 193.29 274.26 194.55 284.21
  C 195.34 290.47 198.81 290.73 200.98 295.37
  C 203.15 300.02 202.33 304.87 203.89 309.11
  Q 207.41 318.62 214.20 326.13
  A 0.86 0.86 0.0 0 1 213.26 327.51
  Q 210.70 326.52 209.43 329.74
  C 207.46 325.25 206.37 320.48 204.44 316.34
  Q 199.15 305.02 194.01 293.64
  Q 192.91 291.21 191.89 287.74
  C 191.06 284.94 190.00 282.73 189.75 279.67
  Q 189.39 275.23 187.87 271.04
  C 186.59 267.52 187.25 264.18 186.04 260.52
  Q 184.57 256.06 184.61 254.87
  Q 184.71 251.61 187.11 249.14
  A 1.39 1.37 -21.6 0 0 187.50 248.26
  Q 187.75 244.35 185.51 241.17
  A 1.20 1.10 -66.2 0 1 185.31 240.58
  C 184.92 232.89 184.93 225.87 187.29 218.27
  C 191.87 203.53 193.62 189.40 202.33 174.67
  C 206.09 168.31 209.02 161.36 213.74 155.11
  C 216.84 151.01 220.65 144.23 224.35 141.33
  Q 229.58 137.22 235.80 130.80
  Q 239.39 127.08 244.73 124.66
  C 245.43 124.34 245.83 123.76 246.39 123.25
  Q 246.74 122.93 246.91 122.55
  C 249.80 116.15 254.73 114.27 260.24 111.43
  C 265.62 108.65 269.68 104.78 274.12 100.85
  C 275.96 99.22 278.89 99.39 280.92 98.31
  C 290.94 92.99 300.58 87.03 312.99 82.96
  Q 324.68 79.13 343.79 75.02
  C 352.71 73.10 362.19 70.56 371.50 68.61
  Z"
/>
<path fill="#000000" d="
  M 519.79 83.16
  C 524.40 83.08 532.01 82.88 535.52 85.95
  C 537.75 87.90 538.65 88.95 541.81 89.26
  Q 546.92 89.77 551.48 92.25
  Q 563.80 98.92 576.29 105.25
  Q 579.25 106.75 581.98 109.19
  Q 588.31 114.85 595.34 119.57
  Q 601.59 123.78 605.03 126.73
  C 614.84 135.15 625.11 143.35 631.90 154.04
  C 634.33 157.86 637.72 160.89 640.12 164.88
  Q 642.29 168.50 644.06 170.64
  Q 654.94 183.77 660.19 198.31
  Q 663.23 206.76 664.87 210.85
  C 666.32 214.48 666.81 218.21 668.10 221.95
  Q 669.30 225.42 669.85 228.69
  C 670.48 232.40 671.71 235.84 671.94 239.48
  Q 672.47 247.78 672.54 255.99
  L 671.29 256.08
  Q 670.74 256.12 670.67 255.57
  C 669.98 250.52 669.94 245.43 668.67 240.60
  Q 667.01 234.30 665.36 228.01
  C 664.53 224.83 662.87 222.92 659.74 222.31
  A 1.37 1.37 0.0 0 1 658.88 220.18
  C 662.51 215.03 659.87 208.51 658.82 202.83
  C 658.48 201.01 657.63 198.45 656.39 197.08
  Q 652.72 193.01 652.34 191.14
  C 650.82 183.80 647.18 180.30 643.27 174.50
  Q 633.56 160.07 630.57 155.92
  C 627.71 151.94 623.33 148.77 620.39 145.45
  Q 612.78 136.84 606.19 131.33
  C 602.63 128.35 597.09 125.90 593.47 122.02
  Q 589.49 117.75 584.20 115.28
  Q 582.15 114.33 580.60 112.81
  C 576.06 108.36 571.06 106.45 565.99 102.93
  Q 560.93 99.42 554.60 99.01
  A 1.89 1.88 -24.8 0 1 553.64 98.66
  Q 547.57 94.18 540.06 95.27
  A 2.02 2.01 68.6 0 1 538.11 94.41
  C 534.62 89.28 530.60 86.91 524.79 85.14
  Q 522.22 84.35 519.79 83.16
  Z"
/>
<path fill="#000000" d="
  M 389.00 164.75
  Q 397.15 168.50 399.88 176.01
  C 401.80 181.26 407.99 177.57 411.02 178.74
  Q 418.11 181.48 422.88 180.37
  Q 426.69 179.49 434.48 178.63
  Q 441.57 177.85 443.11 170.72
  Q 443.21 170.26 443.61 170.01
  C 447.63 167.62 451.01 167.93 455.24 166.84
  Q 456.17 166.60 456.65 167.35
  A 1.10 1.06 77.4 0 0 457.41 167.85
  C 460.49 168.30 462.19 169.23 463.33 172.38
  Q 465.33 177.93 470.03 181.58
  Q 470.39 181.86 470.54 182.29
  Q 471.04 183.72 472.01 184.76
  Q 472.82 185.63 474.23 185.68
  Q 477.24 185.80 480.74 184.79
  A 0.70 0.70 0.0 0 1 481.59 185.24
  C 482.76 188.84 489.32 186.79 491.75 187.00
  Q 494.13 187.22 496.37 188.01
  Q 499.68 189.17 500.53 189.39
  Q 501.94 189.77 503.35 190.17
  Q 504.36 190.47 506.21 190.68
  Q 512.14 191.35 514.79 196.93
  Q 515.00 197.39 515.49 197.52
  Q 522.86 199.54 529.42 203.38
  Q 530.76 204.17 532.93 203.72
  Q 533.45 203.61 533.89 203.90
  L 539.60 207.73
  A 1.10 1.10 0.0 0 0 541.18 207.34
  Q 541.59 206.60 542.58 206.75
  Q 543.20 206.85 543.81 207.43
  C 545.33 208.86 546.16 210.46 547.93 211.62
  C 551.48 213.93 554.10 216.97 557.57 219.14
  Q 560.91 221.22 564.04 223.61
  Q 565.04 224.37 567.60 225.50
  Q 570.53 226.79 573.13 230.10
  Q 575.28 232.86 580.28 235.33
  A 1.79 1.72 -1.2 0 1 581.00 235.99
  Q 585.06 242.71 590.92 247.80
  C 595.69 251.94 595.31 261.34 601.96 262.94
  A 2.20 2.19 -2.2 0 1 603.52 264.38
  Q 605.05 269.02 607.29 273.49
  Q 608.15 275.21 612.34 281.72
  Q 616.90 288.80 619.79 296.77
  C 620.46 298.62 620.11 299.96 618.01 300.20
  A 0.98 0.97 10.8 0 0 617.27 300.70
  Q 615.65 303.54 613.58 309.03
  C 612.35 312.31 608.38 313.64 606.55 315.20
  C 603.69 317.63 601.97 319.66 600.88 323.57
  Q 600.11 326.35 598.37 328.69
  Q 598.10 329.06 598.00 329.51
  L 597.48 331.72
  Q 597.37 332.20 597.55 332.66
  Q 598.76 335.63 602.19 334.20
  Q 603.74 333.56 603.98 331.90
  C 605.12 324.08 610.71 321.88 615.52 317.21
  C 618.74 314.08 621.40 309.48 626.70 309.84
  Q 632.14 310.20 637.35 308.30
  C 640.63 307.10 649.36 314.45 651.62 316.79
  Q 653.64 318.88 656.22 320.73
  Q 662.29 325.08 665.89 331.62
  Q 666.78 333.23 667.75 337.21
  Q 668.54 340.43 670.16 343.37
  Q 670.92 344.76 671.66 347.07
  Q 672.15 348.63 673.15 350.84
  Q 674.57 353.99 675.16 361.23
  Q 675.20 361.72 674.99 362.16
  Q 673.27 365.74 673.44 368.03
  Q 674.05 376.34 670.56 383.68
  Q 669.80 385.27 667.18 388.30
  Q 664.95 390.87 663.55 394.01
  C 662.66 395.98 663.22 399.66 661.68 401.03
  Q 654.18 407.75 646.92 414.73
  C 645.23 416.35 642.78 417.05 640.87 418.69
  A 1.11 1.09 -61.5 0 1 640.05 418.94
  C 635.20 418.45 633.03 421.09 629.61 422.57
  C 627.16 423.63 624.40 424.50 622.75 426.63
  C 620.63 429.36 617.98 436.60 621.44 439.53
  A 1.43 1.43 0.0 0 0 623.72 438.86
  L 625.06 434.56
  Q 625.21 434.06 625.62 433.75
  Q 631.17 429.46 635.73 424.16
  Q 636.09 423.74 636.64 423.65
  C 639.60 423.18 642.21 423.22 644.70 421.44
  Q 646.59 420.09 648.29 418.51
  Q 650.14 416.79 651.90 415.68
  Q 656.88 412.53 661.38 408.73
  Q 663.97 406.54 665.94 403.27
  Q 668.01 399.84 670.05 396.40
  Q 670.20 396.15 673.93 390.89
  Q 677.37 386.03 677.86 379.76
  Q 678.09 376.76 677.55 367.00
  Q 677.52 366.50 677.88 366.15
  C 679.95 364.15 679.96 361.64 680.77 359.27
  Q 681.74 356.44 681.71 355.59
  C 681.65 353.17 679.94 351.62 679.22 350.02
  Q 677.14 345.32 675.67 340.42
  Q 675.00 338.19 673.50 335.92
  C 671.51 332.90 670.70 329.96 668.42 326.91
  Q 664.44 321.60 667.27 316.42
  C 667.76 319.54 668.08 321.32 670.52 323.57
  C 676.89 329.47 678.31 335.27 681.61 342.23
  Q 682.31 343.72 682.51 346.07
  Q 682.80 349.44 684.71 352.29
  A 1.83 1.78 -62.7 0 1 685.00 353.24
  Q 685.15 362.93 684.02 372.49
  C 683.71 375.05 682.53 377.10 682.09 379.46
  Q 679.97 390.68 673.30 399.74
  C 669.70 404.62 666.04 410.85 659.90 414.93
  Q 655.37 417.95 653.75 419.35
  C 650.63 422.06 645.50 428.31 641.04 426.82
  A 1.05 1.05 0.0 0 0 640.18 426.91
  Q 632.71 431.36 629.22 436.26
  C 628.06 437.87 628.42 441.02 627.42 443.26
  C 625.12 448.39 625.20 453.44 622.44 458.76
  Q 621.20 461.16 619.27 464.08
  Q 612.31 474.61 607.68 480.46
  C 603.81 485.36 598.51 488.65 594.07 493.25
  C 591.56 495.84 588.53 497.06 585.82 499.35
  C 583.18 501.58 579.59 503.09 577.27 504.65
  C 575.23 506.02 573.57 507.16 571.18 508.35
  C 567.70 510.09 564.84 512.53 561.44 513.93
  C 558.74 515.04 556.24 516.16 553.40 517.07
  C 538.81 521.76 524.36 528.58 508.51 532.95
  C 505.63 533.74 501.21 533.79 497.71 535.10
  C 492.75 536.95 487.22 536.99 481.99 536.97
  C 480.38 536.96 477.89 538.77 475.58 539.03
  Q 470.27 539.62 464.95 539.87
  Q 463.07 539.95 460.70 540.90
  Q 457.41 542.21 453.79 542.16
  A 1.41 1.40 25.7 0 0 452.87 542.48
  Q 450.58 544.31 447.75 544.40
  Q 435.19 544.77 422.63 544.84
  Q 422.09 544.85 421.68 545.21
  L 420.28 546.49
  Q 419.85 546.88 419.27 546.93
  Q 413.17 547.45 407.10 547.18
  C 395.11 546.66 383.16 546.49 371.17 546.17
  C 365.13 546.00 355.22 546.56 347.25 545.14
  C 344.14 544.58 341.89 542.75 338.67 542.66
  C 333.25 542.51 328.30 542.55 323.05 540.99
  Q 317.87 539.45 315.79 539.15
  C 311.72 538.58 307.96 538.45 304.07 537.25
  Q 299.84 535.94 295.67 534.48
  Q 292.73 533.46 289.12 532.98
  C 286.07 532.58 283.31 532.20 280.45 530.79
  Q 273.24 527.24 265.87 524.04
  Q 260.60 521.76 255.88 518.88
  C 250.80 515.77 245.89 513.28 241.14 509.39
  C 238.69 507.38 235.69 506.24 233.50 504.21
  Q 220.14 491.84 213.29 483.49
  Q 208.91 478.14 206.88 469.63
  C 206.14 466.52 204.57 464.88 202.66 462.56
  C 200.45 459.90 201.48 453.54 201.29 450.06
  Q 201.17 447.77 200.03 444.05
  Q 198.57 439.28 198.64 434.23
  C 198.70 429.55 195.47 426.11 197.26 421.39
  C 198.87 417.14 199.59 412.69 201.20 408.67
  C 203.63 402.60 205.34 396.24 208.36 390.44
  Q 210.22 386.86 211.93 383.25
  Q 211.97 385.16 210.95 386.88
  Q 210.58 387.50 211.29 387.39
  Q 211.44 387.37 211.60 387.36
  Q 212.05 387.34 211.93 387.77
  Q 211.47 389.41 211.08 391.04
  Q 210.77 392.36 209.95 393.75
  Q 207.73 397.50 206.98 402.28
  C 206.27 406.69 204.74 411.13 203.54 415.96
  Q 202.83 418.77 201.84 421.49
  C 199.96 426.69 202.05 435.16 203.37 440.37
  Q 203.78 441.96 204.63 443.35
  A 1.40 1.40 0.0 0 0 205.33 443.93
  Q 207.57 444.81 209.27 446.77
  A 2.24 2.24 0.0 0 1 208.49 450.29
  C 205.34 451.70 206.03 454.42 206.59 457.33
  Q 206.87 458.85 207.62 460.18
  Q 208.45 461.67 208.75 462.90
  Q 209.16 464.58 209.85 466.13
  Q 210.99 468.71 211.74 469.93
  Q 212.89 471.82 214.78 473.01
  A 1.19 1.19 0.0 0 0 216.53 472.42
  Q 217.86 468.82 216.90 466.12
  L 220.86 467.27
  A 1.14 1.13 84.9 0 1 221.55 467.85
  C 223.43 471.73 224.57 476.63 227.46 479.78
  Q 233.28 486.09 240.25 491.02
  C 244.92 494.32 248.60 498.34 253.18 501.76
  Q 255.87 503.77 260.52 505.73
  Q 267.27 508.56 273.52 512.36
  C 276.40 514.12 278.65 514.54 281.79 515.13
  C 284.69 515.68 287.03 517.65 289.59 519.00
  C 293.29 520.93 297.97 521.46 302.05 522.84
  C 305.84 524.12 309.34 523.58 313.22 524.13
  Q 314.82 524.36 317.31 525.65
  Q 320.76 527.45 325.25 527.64
  Q 334.50 528.04 343.75 528.35
  C 347.36 528.47 349.88 531.65 352.74 531.62
  Q 359.75 531.54 366.75 531.68
  Q 369.73 531.75 374.20 531.06
  C 379.38 530.27 384.92 530.24 389.99 531.71
  C 392.20 532.34 394.44 533.20 396.72 532.76
  C 399.89 532.15 402.53 529.54 405.64 529.75
  A 1.80 1.78 62.9 0 1 406.49 530.03
  Q 410.65 532.71 415.49 532.94
  C 418.95 533.10 420.85 530.09 424.34 530.71
  Q 431.94 532.06 438.74 530.17
  Q 448.27 527.53 456.72 527.08
  C 459.09 526.95 461.38 526.02 463.76 526.05
  C 476.65 526.21 488.88 520.87 501.74 520.83
  Q 508.12 520.81 513.20 516.82
  C 514.80 515.56 516.76 514.53 518.67 514.09
  Q 530.71 511.35 542.38 507.34
  C 545.93 506.11 550.13 506.37 553.28 503.69
  Q 559.44 498.45 565.94 496.39
  Q 572.64 494.25 576.46 489.45
  C 581.78 482.74 590.47 479.77 595.44 472.61
  Q 598.80 467.77 602.90 463.55
  C 612.14 454.06 614.99 443.53 614.91 430.69
  C 614.85 420.62 621.71 419.94 629.52 417.97
  C 636.09 416.31 643.95 409.51 650.01 405.15
  C 656.37 400.57 659.90 396.80 662.12 389.82
  C 663.22 386.36 666.19 383.96 667.03 380.77
  Q 668.82 373.95 670.72 367.18
  C 671.08 365.89 670.75 363.30 670.15 361.63
  Q 668.89 358.07 668.90 354.30
  C 668.90 349.48 668.71 347.09 666.90 343.38
  Q 664.99 339.44 664.34 337.62
  C 663.28 334.61 662.39 332.05 660.18 329.62
  Q 652.41 321.11 643.00 315.76
  C 637.69 312.74 630.77 314.32 624.99 314.97
  C 616.16 315.97 609.40 331.66 607.33 339.12
  Q 607.19 339.62 606.77 339.91
  Q 601.70 343.48 596.01 340.27
  Q 594.15 339.22 594.09 337.25
  C 593.96 332.88 593.71 327.04 596.39 323.32
  Q 599.25 319.36 601.50 315.05
  C 605.37 307.63 617.44 303.98 613.65 294.04
  Q 611.00 287.11 606.17 281.60
  C 602.57 277.51 601.55 272.76 598.50 268.39
  C 595.69 264.35 593.57 259.72 590.88 256.00
  C 587.11 250.79 583.77 245.11 578.78 240.89
  Q 571.63 234.84 565.31 227.94
  C 563.92 226.42 562.43 225.56 560.74 224.56
  Q 550.57 218.52 543.65 213.11
  C 540.34 210.52 538.82 209.07 534.74 207.72
  C 528.30 205.60 522.72 202.17 516.33 200.09
  C 511.40 198.48 506.92 195.97 501.81 195.25
  Q 491.53 193.80 481.31 192.07
  Q 472.01 190.50 471.66 190.39
  C 464.56 188.11 461.84 180.77 458.55 173.32
  Q 457.11 170.06 455.68 169.19
  C 450.94 166.29 445.29 175.98 444.05 179.55
  C 443.30 181.74 439.39 183.77 436.75 183.89
  C 429.06 184.25 421.28 185.01 413.71 183.76
  C 408.30 182.87 399.94 182.11 395.99 178.82
  C 391.38 174.98 391.93 169.41 389.00 164.75
  Z"
/>
<path fill="#000000" d="
  M 1172.02 296.63
  C 1166.07 304.07 1155.99 317.36 1146.44 318.84
  C 1141.15 319.66 1135.53 315.34 1133.25 311.00
  C 1129.70 304.26 1130.17 297.18 1132.26 289.40
  C 1137.80 268.74 1158.93 219.85 1188.31 231.85
  A 0.44 0.43 -65.9 0 0 1188.87 231.63
  L 1213.08 179.11
  Q 1213.97 177.19 1216.07 177.04
  C 1218.93 176.84 1222.31 176.50 1224.83 178.21
  C 1229.61 181.46 1230.39 186.12 1228.15 191.45
  Q 1207.13 241.29 1189.95 292.54
  C 1185.43 306.01 1180.01 321.49 1179.47 335.74
  C 1179.40 337.71 1179.84 338.97 1181.45 340.36
  C 1184.59 343.08 1186.40 348.00 1183.82 351.63
  Q 1181.79 354.47 1177.74 353.76
  C 1158.37 350.37 1169.55 308.50 1172.36 296.80
  Q 1172.57 295.94 1172.02 296.63
  Z
  M 1154.84 280.40
  C 1152.48 285.65 1149.65 292.52 1148.57 298.72
  Q 1148.40 299.67 1149.01 298.92
  C 1161.36 283.51 1172.45 263.78 1181.39 247.30
  Q 1181.85 246.45 1180.95 246.81
  C 1169.05 251.63 1159.60 269.83 1154.84 280.40
  Z"
/>
<path fill="#000000" d="
  M 980.35 287.43
  Q 983.81 285.30 986.94 282.69
  Q 998.97 272.66 1010.22 261.74
  Q 1011.24 260.74 1014.35 260.53
  A 0.91 0.90 11.3 0 0 1015.08 260.05
  C 1021.85 247.43 1035.77 231.58 1052.17 236.04
  C 1061.06 238.46 1068.04 246.59 1067.01 255.99
  C 1066.43 261.21 1061.83 262.67 1057.34 261.17
  Q 1051.34 259.15 1049.73 252.43
  Q 1049.60 251.90 1049.08 252.05
  C 1039.37 254.88 1031.27 268.04 1027.46 276.84
  A 0.11 0.11 0.0 0 0 1027.64 276.95
  C 1034.89 267.91 1044.39 257.40 1056.16 267.13
  C 1059.86 270.19 1063.14 275.58 1065.84 279.95
  A 0.86 0.86 0.0 0 0 1066.92 280.29
  C 1076.25 276.15 1084.27 267.98 1091.43 260.81
  Q 1091.75 260.49 1092.17 260.31
  L 1093.49 259.76
  Q 1093.98 259.55 1094.10 259.03
  Q 1097.24 245.36 1100.31 231.68
  Q 1101.28 227.31 1102.97 225.83
  C 1106.55 222.68 1111.72 225.18 1115.09 228.09
  Q 1115.52 228.46 1115.81 227.97
  Q 1121.26 219.03 1129.30 211.08
  C 1136.30 204.15 1151.87 196.25 1158.63 208.09
  C 1161.39 212.94 1159.07 218.83 1153.02 218.62
  C 1130.56 217.82 1107.38 289.17 1101.48 307.96
  Q 1099.89 313.01 1093.85 311.66
  Q 1086.07 309.91 1084.84 302.97
  C 1084.22 299.46 1086.22 294.57 1086.84 290.73
  Q 1086.97 289.93 1086.32 290.41
  C 1071.23 301.53 1058.27 298.04 1049.44 282.03
  A 0.82 0.81 -39.3 0 0 1048.10 281.90
  Q 1038.57 293.21 1029.27 304.52
  C 1024.91 309.82 1017.33 316.90 1009.93 313.68
  C 1003.46 310.86 1000.88 303.47 1002.03 296.73
  Q 1002.40 294.59 1002.60 292.35
  Q 1002.66 291.60 1002.07 292.06
  C 995.16 297.33 982.59 304.76 973.64 303.39
  C 956.36 300.73 962.91 280.09 965.38 269.46
  Q 965.62 268.42 964.92 269.22
  Q 950.70 285.40 936.86 301.83
  C 932.21 307.35 922.55 317.43 914.71 311.05
  C 909.22 306.58 909.58 295.74 911.03 289.63
  A 0.48 0.48 0.0 0 0 910.26 289.14
  C 896.79 299.93 869.60 320.52 851.72 314.61
  C 841.04 311.07 836.58 300.69 838.74 289.82
  Q 838.91 288.96 838.25 289.55
  C 830.34 296.63 814.89 310.90 803.54 307.53
  C 783.02 301.43 802.30 258.29 807.90 247.36
  C 812.06 239.26 823.77 246.65 824.28 253.59
  Q 824.46 256.00 822.61 259.65
  Q 814.87 274.94 808.28 291.19
  Q 807.52 293.07 809.29 292.07
  Q 810.62 291.32 812.68 289.91
  Q 831.14 277.27 847.05 261.54
  Q 848.10 260.51 850.58 259.97
  Q 851.06 259.87 851.30 259.44
  C 856.45 250.14 867.84 235.03 879.95 238.77
  C 889.68 241.78 892.78 252.90 889.89 261.76
  C 888.60 265.71 887.41 269.26 883.95 270.69
  C 879.02 272.74 873.54 268.42 871.48 264.19
  Q 871.22 263.65 870.85 264.13
  C 863.91 273.28 856.34 286.80 855.48 298.42
  A 0.95 0.95 0.0 0 0 856.68 299.41
  Q 864.32 297.34 871.21 293.18
  Q 894.12 279.34 914.43 261.91
  C 915.30 261.16 916.58 260.76 917.66 260.33
  Q 918.15 260.14 918.32 259.65
  Q 931.36 222.20 948.78 186.59
  C 953.03 177.90 966.29 182.13 966.64 190.55
  Q 966.74 192.80 964.71 197.11
  C 951.06 226.07 937.54 255.38 926.07 285.24
  A 0.22 0.22 0.0 0 0 926.45 285.45
  C 936.75 272.63 947.77 258.95 960.47 248.45
  C 964.19 245.38 968.39 242.82 973.27 242.50
  C 987.64 241.56 988.84 254.44 985.85 265.46
  Q 982.91 276.30 979.99 287.16
  Q 979.83 287.75 980.35 287.43
  Z"
/>
<path fill="#000000" d="
  M 773.84 227.92
  C 780.53 217.21 790.41 204.75 803.22 202.28
  Q 810.86 200.81 815.63 206.58
  C 817.91 209.35 818.84 213.55 816.32 216.43
  C 813.91 219.19 810.55 218.17 807.97 218.90
  C 799.13 221.42 791.11 233.27 786.53 241.78
  Q 770.15 272.19 760.32 305.29
  C 758.77 310.49 756.21 313.54 750.52 311.53
  C 741.53 308.34 742.36 301.95 744.25 293.63
  Q 751.30 262.63 758.33 231.63
  Q 759.29 227.35 760.90 225.89
  C 764.46 222.66 769.66 225.15 773.04 228.04
  Q 773.51 228.45 773.84 227.92
  Z"
/>
<path fill="#000000" d="
  M 832.78 232.61
  C 831.30 235.99 829.07 243.68 825.13 244.54
  C 817.98 246.12 809.88 238.44 813.06 231.10
  C 814.61 227.52 818.99 215.30 822.26 213.97
  C 828.95 211.25 837.27 218.65 835.80 225.46
  Q 835.71 225.88 832.78 232.61
  Z"
/>
<path fill="#000000" d="
  M 893.37 432.46
  C 903.82 425.70 913.96 415.65 922.28 407.65
  C 923.55 406.43 924.77 405.96 926.40 405.56
  Q 926.88 405.44 927.11 405.00
  C 933.70 392.71 947.38 376.99 963.38 380.88
  C 972.60 383.13 980.10 391.11 979.00 400.99
  C 978.43 406.21 973.83 407.67 969.35 406.17
  Q 963.35 404.16 961.73 397.48
  Q 961.61 396.99 961.12 397.11
  C 951.64 399.46 943.10 413.31 939.61 421.65
  Q 939.34 422.30 939.78 421.75
  C 946.96 412.84 956.34 402.58 967.97 411.98
  C 971.76 415.04 975.10 420.51 977.83 424.95
  A 0.87 0.86 62.1 0 0 978.92 425.29
  C 988.25 421.15 996.27 412.97 1003.47 405.83
  C 1004.08 405.23 1005.08 404.94 1005.87 404.59
  Q 1006.31 404.40 1006.47 403.95
  Q 1008.74 397.86 1011.29 391.89
  C 1015.21 382.73 1026.51 388.66 1028.06 395.81
  Q 1028.59 398.27 1027.09 402.52
  Q 1024.43 410.04 1022.00 417.43
  A 0.27 0.27 0.0 0 0 1022.48 417.65
  Q 1030.80 403.92 1038.79 390.56
  C 1043.07 383.39 1051.09 375.55 1059.98 380.62
  C 1066.38 384.28 1067.61 392.12 1066.43 398.99
  Q 1063.64 415.22 1058.08 429.02
  Q 1057.82 429.68 1058.52 429.57
  Q 1061.79 429.07 1064.53 427.74
  Q 1081.69 419.35 1096.22 406.94
  Q 1098.06 405.37 1100.42 404.73
  A 1.19 1.17 6.9 0 0 1101.13 404.18
  C 1109.06 390.13 1126.36 377.22 1141.78 389.53
  Q 1142.17 389.85 1142.62 389.59
  Q 1155.93 381.93 1162.73 395.65
  C 1166.15 402.53 1161.56 419.61 1158.96 428.50
  C 1150.83 456.19 1138.13 490.09 1120.97 515.95
  C 1115.30 524.49 1105.06 533.64 1094.46 533.98
  C 1080.46 534.42 1070.93 520.58 1069.91 507.49
  Q 1068.61 490.68 1074.49 477.72
  C 1075.37 475.78 1078.67 474.87 1080.81 475.19
  C 1087.08 476.12 1092.20 481.99 1089.92 488.59
  C 1087.34 496.10 1084.88 508.89 1088.60 516.37
  A 2.07 2.07 0.0 0 0 1091.33 517.32
  C 1103.04 511.84 1110.11 499.19 1115.66 488.16
  Q 1133.09 453.52 1143.17 416.94
  Q 1143.59 415.42 1142.64 416.68
  Q 1133.03 429.41 1123.19 442.43
  Q 1117.99 449.31 1111.02 455.50
  C 1099.78 465.47 1088.30 454.13 1088.62 441.99
  Q 1088.77 436.22 1090.20 431.74
  Q 1090.97 429.36 1089.07 430.99
  C 1081.49 437.52 1069.23 445.29 1059.58 445.48
  C 1050.93 445.64 1044.58 439.41 1043.49 430.94
  C 1042.63 424.22 1043.95 416.94 1045.50 410.45
  A 0.24 0.24 0.0 0 0 1045.07 410.26
  Q 1035.51 424.02 1026.23 437.93
  C 1022.14 444.06 1012.41 457.13 1004.71 455.40
  C 996.39 453.53 996.97 443.07 997.62 436.76
  Q 997.69 436.10 997.12 436.44
  Q 993.98 438.29 990.81 439.70
  C 976.97 445.85 967.78 438.25 961.25 426.75
  A 0.53 0.53 0.0 0 0 960.39 426.66
  Q 952.06 436.22 944.01 446.24
  C 938.66 452.91 928.45 465.21 918.54 456.44
  C 913.21 451.72 913.39 445.20 914.46 438.18
  Q 914.58 437.45 913.97 437.88
  C 906.69 443.13 895.54 449.46 886.74 448.39
  Q 877.53 447.27 875.45 437.55
  C 873.76 429.65 876.75 421.99 878.39 414.43
  Q 878.61 413.42 877.93 414.20
  Q 863.61 430.53 849.62 447.09
  C 846.48 450.81 840.20 456.86 835.57 457.92
  C 827.84 459.69 823.78 452.74 823.23 445.50
  Q 822.95 441.75 823.97 433.58
  Q 824.07 432.79 823.44 433.28
  C 809.99 443.81 795.92 454.24 779.43 459.35
  C 769.16 462.53 756.88 459.94 752.20 449.61
  Q 751.00 446.94 751.00 442.70
  C 751.00 438.01 750.58 433.39 751.96 428.92
  C 755.84 416.35 775.46 372.47 795.50 385.53
  C 805.24 391.89 804.54 405.50 798.51 414.01
  Q 797.69 415.18 796.05 415.80
  C 791.08 417.66 785.46 413.49 783.58 409.17
  Q 783.26 408.44 782.79 409.09
  C 775.74 418.79 768.14 432.06 767.49 443.82
  Q 767.46 444.39 768.03 444.31
  Q 772.96 443.59 777.33 441.37
  C 795.15 432.37 811.48 419.45 826.80 406.74
  C 827.97 405.76 829.22 405.44 830.66 405.18
  Q 831.17 405.09 831.35 404.60
  Q 844.53 366.72 862.18 330.71
  C 866.07 322.78 879.61 327.76 879.68 335.90
  Q 879.70 337.87 877.85 341.79
  C 864.17 370.86 850.58 400.27 839.07 430.24
  A 0.22 0.22 0.0 0 0 839.44 430.45
  C 849.71 417.68 860.69 404.05 873.31 393.57
  C 877.08 390.44 881.38 387.81 886.33 387.50
  C 900.66 386.60 901.84 399.47 898.85 410.46
  Q 895.91 421.31 892.98 432.18
  Q 892.81 432.82 893.37 432.46
  Z
  M 1129.71 402.10
  C 1120.19 405.75 1113.76 418.39 1110.62 427.24
  A 0.11 0.11 0.0 0 0 1110.81 427.34
  L 1129.92 402.38
  Q 1130.31 401.87 1129.71 402.10
  Z"
/>
<path fill="#000000" d="
  M 451.47 358.33
  C 451.92 356.75 453.75 353.69 455.16 352.20
  Q 455.47 351.87 455.93 351.84
  L 465.98 351.13
  A 1.68 1.65 58.0 0 1 466.97 351.37
  Q 470.84 353.71 474.25 353.22
  Q 483.92 351.81 493.65 351.09
  C 498.41 350.74 502.51 352.50 501.27 357.99
  Q 500.64 360.76 497.36 361.17
  Q 481.99 363.08 466.50 363.20
  Q 464.99 363.21 460.96 364.93
  A 1.28 1.24 42.8 0 1 460.04 364.95
  Q 457.25 363.93 453.16 361.52
  Q 450.94 360.20 451.47 358.33
  Z"
/>
<path fill="#000000" d="
  M 347.82 355.63
  C 350.12 356.81 351.07 358.96 349.98 361.20
  C 348.24 364.79 340.32 365.47 336.98 365.25
  Q 332.41 364.94 330.52 365.08
  Q 317.58 366.01 304.65 365.13
  Q 301.98 364.95 301.01 364.23
  C 298.85 362.64 298.85 359.26 299.39 356.92
  A 1.25 1.22 83.0 0 1 300.00 356.12
  Q 302.69 354.67 305.75 354.62
  C 312.30 354.52 318.83 353.29 325.11 353.31
  C 333.17 353.33 340.52 351.88 347.82 355.63
  Z"
/>
<path fill="#000000" d="
  M 610.66 384.94
  C 612.44 380.53 613.95 372.43 617.23 369.25
  C 620.87 365.73 624.64 365.26 628.30 369.50
  C 630.00 371.46 630.16 372.67 629.04 375.18
  C 627.26 379.12 625.64 383.22 626.65 387.67
  Q 628.30 394.91 628.24 402.31
  C 628.20 406.34 626.51 407.31 623.33 409.02
  C 620.48 410.56 619.33 410.73 616.50 408.83
  C 612.72 406.31 608.68 403.27 608.69 398.52
  Q 608.71 389.81 610.66 384.94
  Z"
/>
<path fill="#000000" d="
  M 468.40 398.65
  C 469.51 393.68 472.31 389.78 476.55 387.09
  A 2.41 2.40 -40.1 0 1 479.44 387.33
  Q 484.24 391.58 485.17 397.74
  C 486.43 405.99 485.86 416.48 474.98 416.92
  C 467.53 417.22 467.47 402.80 468.40 398.65
  Z"
/>
<path fill="#000000" d="
  M 329.74 408.52
  C 328.13 413.00 326.18 419.16 320.48 417.61
  C 313.27 415.64 310.94 408.05 313.30 401.44
  C 314.44 398.25 315.04 394.61 316.89 391.93
  C 318.24 389.98 320.48 386.18 323.44 387.47
  Q 329.76 390.24 330.91 396.20
  Q 332.05 402.13 329.74 408.52
  Z"
/>
<path fill="#000000" d="
  M 391.11 423.06
  Q 388.74 429.97 393.00 434.79
  C 397.35 439.71 404.19 437.48 400.46 446.59
  Q 399.87 448.05 398.27 447.51
  C 391.61 445.29 383.41 438.91 381.65 431.76
  Q 380.36 426.54 382.02 421.29
  C 383.53 416.52 387.69 413.47 391.76 410.75
  C 394.48 408.94 403.43 406.11 404.60 411.70
  Q 405.28 414.92 401.80 416.63
  C 398.59 418.20 392.98 417.62 391.11 423.06
  Z"
/>
<path fill="#000000" d="
  M 342.32 480.53
  C 336.60 478.26 330.04 475.36 324.34 472.34
  C 318.54 469.27 314.45 464.50 316.22 457.78
  C 317.16 454.18 324.97 454.97 328.58 455.41
  Q 329.04 455.47 329.32 455.84
  C 332.86 460.53 328.32 465.60 335.00 468.51
  Q 347.39 473.91 360.40 475.16
  Q 362.99 475.40 367.03 476.38
  C 371.60 477.48 375.91 477.02 380.36 477.02
  Q 393.10 477.00 399.92 478.16
  Q 406.99 479.35 411.93 478.58
  Q 427.92 476.09 444.06 475.01
  Q 448.37 474.72 451.75 473.48
  Q 461.24 469.99 469.81 464.55
  Q 474.33 461.67 477.84 457.61
  C 478.89 456.39 480.58 455.02 481.87 454.59
  A 2.00 1.99 78.5 0 1 484.48 456.32
  C 484.94 461.99 482.79 464.86 478.35 468.58
  C 475.25 471.18 470.15 476.29 466.16 476.89
  Q 460.95 477.69 456.01 479.41
  Q 449.41 481.71 446.76 482.32
  Q 439.70 483.94 432.58 485.35
  C 429.84 485.90 425.75 488.29 423.25 488.07
  Q 411.11 487.04 399.00 488.34
  C 394.85 488.79 388.29 486.42 382.93 486.60
  C 379.64 486.72 376.76 486.98 373.38 486.44
  Q 368.12 485.59 362.80 485.66
  Q 360.20 485.70 357.82 484.91
  C 352.65 483.20 346.95 482.37 342.32 480.53
  Z"
/>
</svg>
