<?xml version="1.0" encoding="UTF-8" standalone="no"?>
<!DOCTYPE svg PUBLIC "-//W3C//DTD SVG 1.1//EN" "http://www.w3.org/Graphics/SVG/1.1/DTD/svg11.dtd">
<svg xmlns="http://www.w3.org/2000/svg" version="1.1" viewBox="0.00 0.00 561.00 357.00" width="561.00" height="357.00">
<path fill="#000000" d="
  M 476.12 0.00
  L 477.24 0.00
  C 484.23 1.13 489.54 7.27 486.52 14.47
  Q 467.85 58.98 451.86 104.52
  Q 444.98 124.12 439.87 144.26
  Q 437.76 152.59 437.45 159.74
  C 437.37 161.64 437.87 163.01 439.44 164.36
  C 442.62 167.09 444.49 172.22 441.66 175.79
  C 438.35 179.98 431.09 177.07 428.36 173.52
  C 420.13 162.84 427.22 132.89 430.49 120.68
  A 0.31 0.31 0.0 0 0 429.94 120.42
  C 424.96 127.68 410.93 144.91 401.11 142.77
  C 391.85 140.75 387.72 129.89 388.76 121.24
  C 390.88 103.58 400.38 85.32 410.87 70.61
  C 419.18 58.97 431.13 50.13 446.20 55.75
  Q 446.72 55.94 446.96 55.43
  Q 459.12 29.04 471.24 2.79
  Q 472.23 0.65 476.12 0.00
  Z
  M 427.46 79.99
  C 417.65 93.22 410.10 107.41 406.48 122.96
  A 0.18 0.18 0.0 0 0 406.79 123.12
  C 419.39 107.50 429.84 88.95 439.34 71.26
  Q 439.76 70.49 438.94 70.82
  Q 432.26 73.52 427.46 79.99
  Z"
/>
<path fill="#000000" d="
  M 238.34 111.44
  Q 241.88 109.25 245.07 106.59
  Q 257.03 96.60 268.22 85.74
  Q 269.24 84.74 272.34 84.53
  A 0.91 0.89 -77.4 0 0 273.08 84.05
  C 279.76 71.57 293.89 55.44 310.16 60.08
  C 318.56 62.48 324.92 69.15 325.11 78.22
  C 325.24 84.59 320.53 87.12 314.96 85.04
  Q 309.29 82.92 307.74 76.48
  Q 307.62 75.99 307.12 76.11
  C 297.59 78.45 289.04 92.43 285.49 100.89
  A 0.09 0.09 0.0 0 0 285.64 100.98
  C 291.44 93.43 299.55 83.99 310.05 88.52
  C 315.86 91.03 320.53 98.19 323.71 103.88
  A 0.96 0.96 0.0 0 0 324.93 104.28
  C 334.30 100.14 342.39 91.87 349.57 84.67
  A 0.66 0.55 -77.1 0 1 349.70 84.57
  L 351.54 83.71
  Q 351.99 83.50 352.10 83.01
  Q 355.25 69.32 358.32 55.62
  Q 359.27 51.37 360.89 49.87
  C 364.42 46.58 369.87 49.27 373.16 52.15
  Q 373.61 52.54 373.92 52.02
  Q 381.29 39.32 391.93 31.17
  C 397.09 27.22 406.11 24.25 412.20 27.48
  C 416.64 29.84 420.76 38.27 415.16 41.48
  Q 414.08 42.10 410.32 42.52
  C 387.16 45.12 365.31 112.95 359.68 131.02
  C 356.52 141.19 343.70 134.34 342.75 126.83
  C 342.33 123.56 344.16 118.55 344.86 114.75
  Q 345.01 113.99 344.37 114.43
  C 328.59 125.46 316.46 122.11 307.26 105.76
  A 0.52 0.52 0.0 0 0 306.42 105.67
  C 298.45 114.58 291.05 124.64 283.61 132.35
  C 278.90 137.24 271.30 141.40 265.32 136.15
  C 258.48 130.16 259.84 124.52 260.59 116.35
  Q 260.66 115.61 260.07 116.06
  C 253.15 121.34 240.58 128.77 231.63 127.38
  C 214.36 124.72 220.91 104.09 223.38 93.46
  Q 223.62 92.42 222.92 93.23
  Q 208.70 109.40 194.86 125.83
  C 190.21 131.35 180.55 141.43 172.71 135.05
  C 167.22 130.58 167.58 119.74 169.03 113.63
  A 0.48 0.48 0.0 0 0 168.26 113.14
  C 154.71 123.97 126.17 145.69 108.23 138.06
  C 98.50 133.92 94.67 124.04 96.72 113.83
  Q 96.89 113.02 96.27 113.57
  C 88.22 120.76 65.09 142.08 55.01 126.57
  C 46.78 113.91 59.22 84.71 65.23 72.64
  C 66.82 69.45 68.40 67.77 72.01 68.00
  C 77.05 68.32 81.94 72.54 82.28 77.58
  Q 82.45 80.06 80.45 83.99
  Q 72.59 99.44 66.12 115.69
  A 0.49 0.48 86.8 0 0 66.80 116.30
  Q 71.85 113.58 76.69 109.94
  Q 91.87 98.51 105.44 85.22
  Q 106.02 84.65 108.47 83.98
  A 1.25 1.24 -81.9 0 0 109.22 83.41
  C 113.79 75.69 120.76 66.25 128.91 63.24
  Q 138.39 59.74 145.15 67.95
  C 149.37 73.09 149.84 79.60 147.89 85.73
  C 146.64 89.66 145.40 93.26 141.95 94.69
  C 137.02 96.74 131.53 92.42 129.48 88.19
  Q 129.23 87.68 128.89 88.13
  C 122.29 96.76 113.51 111.89 113.55 122.94
  A 0.51 0.51 0.0 0 0 114.18 123.44
  Q 122.91 121.33 130.42 116.68
  Q 152.43 103.03 172.10 86.19
  C 173.13 85.31 174.42 84.74 175.64 84.34
  Q 176.13 84.18 176.29 83.70
  Q 189.21 46.70 206.33 11.45
  Q 207.86 8.31 209.88 7.06
  C 215.33 3.71 224.35 7.66 224.64 14.56
  Q 224.74 16.81 222.71 21.11
  C 209.07 50.06 195.53 79.38 184.07 109.24
  A 0.22 0.22 0.0 0 0 184.45 109.45
  C 194.71 96.68 205.69 83.05 218.31 72.57
  C 222.08 69.43 226.39 66.81 231.34 66.50
  C 245.67 65.59 246.83 78.53 243.86 89.46
  Q 240.91 100.31 237.98 111.17
  Q 237.83 111.75 238.34 111.44
  Z"
/>
<path fill="#000000" d="
  M 31.86 51.92
  C 38.17 41.64 47.85 29.42 59.95 26.63
  C 66.19 25.20 71.37 26.48 74.61 32.11
  C 77.36 36.88 75.18 42.44 69.56 42.60
  Q 66.56 42.69 65.50 43.03
  C 58.76 45.23 52.69 52.73 48.88 58.65
  C 34.53 80.98 24.44 108.58 17.07 133.05
  Q 16.75 134.11 15.03 135.14
  C 9.55 138.41 1.82 132.93 0.81 127.27
  Q 0.47 125.38 1.41 121.28
  Q 8.89 88.46 16.32 55.62
  Q 17.29 51.35 18.90 49.89
  C 22.46 46.66 27.66 49.15 31.05 52.05
  Q 31.53 52.46 31.86 51.92
  Z"
/>
<path fill="#000000" d="
  M 93.80 46.26
  C 94.63 50.29 89.41 59.90 87.62 63.82
  Q 86.31 66.71 84.78 67.71
  C 79.34 71.24 71.10 65.35 70.38 59.70
  C 69.80 55.21 75.04 46.14 77.00 41.76
  C 81.08 32.69 92.35 39.24 93.80 46.26
  Z"
/>
<path fill="#000000" d="
  M 349.49 357.00
  L 348.40 357.00
  C 336.16 356.10 327.82 346.27 325.53 334.75
  Q 323.02 322.13 326.94 308.49
  C 328.78 302.09 330.02 295.77 338.07 298.72
  C 343.27 300.64 346.84 305.74 344.96 311.42
  C 342.04 320.26 340.65 329.36 343.11 338.67
  A 2.16 2.16 0.0 0 0 345.56 340.24
  C 353.34 338.93 362.00 327.02 365.48 320.68
  Q 386.77 281.91 398.12 239.91
  Q 398.46 238.64 397.67 239.68
  Q 388.32 251.96 379.02 264.26
  C 373.41 271.69 361.39 288.26 350.35 279.87
  C 342.23 273.70 342.76 262.65 345.36 253.93
  A 0.37 0.37 0.0 0 0 344.77 253.54
  C 336.59 260.29 322.49 270.12 311.31 268.17
  C 294.65 265.27 297.68 245.00 300.50 233.50
  A 0.26 0.26 0.0 0 0 300.04 233.29
  Q 288.61 250.05 276.72 266.70
  C 272.84 272.13 264.83 281.35 257.96 277.84
  C 251.69 274.63 251.62 265.68 252.73 259.65
  A 0.38 0.37 -12.8 0 0 252.14 259.28
  C 237.80 269.68 224.02 265.06 216.37 249.75
  A 0.56 0.55 52.4 0 0 215.46 249.63
  C 207.40 258.61 199.44 269.73 192.86 276.10
  C 188.64 280.17 183.52 284.19 177.47 281.85
  C 168.97 278.56 167.76 269.41 169.54 261.27
  Q 169.71 260.48 169.04 260.93
  C 160.65 266.44 144.01 276.82 134.90 268.63
  C 126.55 261.13 130.69 246.35 133.50 237.33
  A 0.28 0.28 0.0 0 0 133.03 237.06
  Q 119.65 252.40 106.56 267.80
  C 102.46 272.63 94.80 281.58 87.83 281.08
  C 76.71 280.27 77.59 264.93 79.05 256.61
  A 0.33 0.33 0.0 0 0 78.52 256.29
  C 65.24 266.59 38.78 287.17 21.50 283.24
  C 3.03 279.03 3.03 262.03 8.57 247.02
  C 12.97 235.11 32.58 194.41 51.64 209.35
  C 60.35 216.18 59.24 230.00 53.09 237.57
  Q 52.15 238.72 50.11 239.09
  C 45.20 239.97 40.54 236.42 38.48 232.19
  Q 38.22 231.66 37.86 232.13
  C 31.28 240.77 22.65 255.69 22.52 266.92
  A 0.53 0.53 0.0 0 0 23.17 267.44
  Q 31.91 265.33 39.41 260.67
  Q 61.57 246.92 81.38 229.98
  C 82.61 228.92 84.13 228.47 85.66 228.17
  Q 86.17 228.07 86.34 227.58
  Q 99.37 190.18 116.77 154.61
  C 121.02 145.93 134.22 150.09 134.64 158.49
  Q 134.75 160.77 132.69 165.16
  C 119.05 194.10 105.53 223.39 94.07 253.24
  A 0.22 0.22 0.0 0 0 94.45 253.45
  C 104.71 240.68 115.69 227.06 128.31 216.57
  C 132.08 213.44 136.38 210.81 141.33 210.50
  C 155.63 209.60 156.85 222.49 153.89 233.47
  Q 150.90 244.55 148.08 254.70
  Q 147.64 256.28 148.94 255.28
  Q 164.24 243.50 177.93 229.95
  Q 178.68 229.20 181.37 228.61
  A 1.08 1.07 7.2 0 0 182.09 228.06
  C 188.76 215.51 203.01 199.34 219.32 204.13
  C 227.65 206.57 233.93 213.22 234.11 222.22
  C 234.24 228.59 229.53 231.12 223.96 229.04
  Q 218.29 226.92 216.74 220.48
  Q 216.62 219.99 216.12 220.11
  C 206.60 222.45 198.04 236.42 194.49 244.89
  A 0.09 0.09 0.0 0 0 194.65 244.98
  C 198.42 240.01 203.35 234.09 209.24 232.13
  C 220.87 228.27 228.02 239.67 232.76 247.93
  A 0.85 0.85 0.0 0 0 233.80 248.30
  C 242.34 244.95 250.90 236.48 257.21 229.95
  Q 258.77 228.34 260.87 227.58
  Q 261.34 227.41 261.51 226.95
  Q 265.55 216.01 267.02 213.23
  C 271.14 205.39 286.01 214.03 282.92 222.99
  Q 279.86 231.83 277.00 240.44
  A 0.25 0.25 0.0 0 0 277.45 240.65
  Q 285.10 228.17 292.30 216.00
  C 295.63 210.36 299.98 203.88 306.51 202.43
  Q 311.88 201.24 316.02 204.24
  C 322.09 208.64 322.36 216.18 321.20 223.24
  Q 318.75 238.21 313.11 251.74
  A 0.78 0.78 0.0 0 0 314.10 252.77
  Q 326.70 248.10 337.06 240.55
  Q 348.11 232.51 352.26 229.09
  C 353.14 228.36 354.28 228.07 355.34 227.82
  Q 355.83 227.70 356.08 227.26
  C 364.06 213.10 381.56 200.03 397.04 212.74
  A 0.68 0.68 0.0 0 0 397.89 212.76
  C 408.53 204.55 419.16 214.49 418.75 225.75
  Q 418.48 232.83 416.81 239.73
  Q 410.83 264.45 401.36 288.00
  C 394.50 305.08 387.09 321.41 377.47 336.72
  C 371.18 346.73 361.82 355.73 349.49 357.00
  Z
  M 384.69 225.08
  C 375.24 228.84 368.61 241.48 365.62 250.24
  A 0.11 0.11 0.0 0 0 365.81 250.34
  L 384.92 225.38
  Q 385.35 224.82 384.69 225.08
  Z"
/>
<path fill="#000000" d="
  M 499.53 189.09
  C 497.40 193.66 495.11 198.20 492.84 202.71
  C 487.17 213.94 471.28 202.33 476.07 192.68
  Q 479.31 186.16 482.54 179.74
  C 484.36 176.10 486.57 173.83 490.73 174.78
  C 496.92 176.19 502.60 182.51 499.53 189.09
  Z"
/>
<path fill="#000000" d="
  M 561.00 221.85
  L 561.00 227.56
  Q 558.02 250.80 542.85 268.09
  C 537.98 273.63 530.47 277.90 522.96 276.48
  C 511.99 274.41 506.30 262.84 507.28 252.48
  Q 507.44 250.82 507.34 249.13
  Q 507.30 248.45 506.81 248.92
  C 498.22 257.09 464.25 287.83 454.82 265.18
  C 448.91 250.99 463.26 220.75 470.32 208.81
  C 473.05 204.19 480.69 206.94 483.51 209.73
  C 487.76 213.96 487.34 218.17 484.49 223.40
  C 479.01 233.45 472.31 245.61 467.84 256.66
  Q 467.58 257.31 468.24 257.08
  Q 471.05 256.13 473.04 254.87
  Q 492.21 242.76 509.63 227.12
  C 511.03 225.86 512.35 225.29 514.09 224.84
  Q 514.61 224.71 514.83 224.22
  Q 521.77 208.08 531.43 196.20
  Q 533.64 193.49 537.72 194.24
  Q 545.14 195.61 547.50 202.62
  Q 547.67 203.11 548.14 203.32
  Q 559.52 208.42 561.00 221.85
  Z
  M 539.60 218.63
  C 532.51 230.25 526.24 243.78 524.82 257.95
  A 0.54 0.53 -21.2 0 0 525.75 258.36
  C 534.16 249.00 543.22 233.34 543.34 220.38
  Q 543.34 219.83 542.85 219.60
  L 540.27 218.42
  Q 539.84 218.23 539.60 218.63
  Z"
/>
<path fill="#000000" d="
  M 426.01 263.05
  C 431.26 258.84 444.29 264.30 440.68 272.36
  C 434.00 287.29 415.85 271.20 426.01 263.05
  Z"
/>
</svg>
